<?xml version="1.0" standalone="no"?>
<!DOCTYPE svg PUBLIC "-//W3C//DTD SVG 20010904//EN"
 "http://www.w3.org/TR/2001/REC-SVG-20010904/DTD/svg10.dtd">
<svg version="1.0" xmlns="http://www.w3.org/2000/svg"
 width="340.000000pt" height="150.000000pt" viewBox="0 0 340.000000 150.000000"
 preserveAspectRatio="xMidYMid meet">

<g transform="translate(0.000000,150.000000) scale(0.100000,-0.100000)"
fill="#000000" stroke="none">
<path d="M2948 1253 l-178 -178 0 -53 0 -52 49 0 50 0 3 -293 c3 -291 3 -293
28 -342 62 -121 246 -167 439 -109 46 13 52 18 48 37 -3 12 -13 56 -22 98
l-16 77 -42 -10 c-85 -19 -157 16 -171 83 -3 18 -6 128 -6 245 l0 214 110 0
110 0 0 120 0 120 -110 0 -109 0 -3 110 -3 110 -177 -177z"/>
<path d="M2188 1320 c-117 -19 -328 -89 -328 -108 1 -21 30 -195 33 -198 2 -2
21 3 41 11 130 55 341 73 412 37 61 -31 95 -110 79 -182 -6 -27 -11 -31 -28
-26 -12 4 -65 14 -117 23 -286 49 -531 -90 -580 -331 -22 -110 4 -201 78 -268
56 -50 128 -72 237 -72 115 -1 189 23 270 84 l61 46 -7 -45 c-4 -25 -8 -52 -8
-59 -1 -10 28 -12 126 -10 l127 3 53 330 c55 348 64 460 40 553 -26 97 -88
161 -193 197 -58 20 -214 28 -296 15z m166 -630 l38 -12 -6 -50 c-17 -128
-104 -206 -237 -216 -89 -6 -153 21 -175 75 -36 84 14 169 122 209 45 17 195
13 258 -6z"/>
<path d="M492 1214 c-69 -18 -97 -33 -165 -89 l-57 -46 0 65 0 66 -130 0 -130
0 0 -495 0 -495 130 0 130 0 0 288 c0 325 5 353 67 417 20 21 51 44 69 51 73
31 181 5 221 -52 40 -58 43 -87 43 -400 l0 -304 129 0 130 0 3 303 c3 302 3
303 29 352 35 70 92 107 168 113 98 7 169 -38 199 -127 8 -23 12 -131 12 -337
l0 -304 130 0 130 0 0 343 c0 371 -4 401 -56 497 -112 206 -409 225 -605 38
l-53 -51 -15 24 c-53 80 -110 121 -198 144 -70 18 -112 18 -181 -1z"/>
</g>
</svg>
