<?xml version="1.0" standalone="no"?>
<!DOCTYPE svg PUBLIC "-//W3C//DTD SVG 20010904//EN"
 "http://www.w3.org/TR/2001/REC-SVG-20010904/DTD/svg10.dtd">
<svg version="1.0" xmlns="http://www.w3.org/2000/svg"
 width="340.000000pt" height="150.000000pt" viewBox="0 0 340.000000 150.000000"
 preserveAspectRatio="xMidYMid meet">

<g transform="translate(0.000000,150.000000) scale(0.100000,-0.100000)"
fill="#000000" stroke="none">
<path d="M2950 1444 c-36 -7 -113 -15 -172 -16 l-107 -3 24 -25 c12 -14 33
-45 46 -70 l24 -45 5 -480 c5 -479 5 -480 29 -527 61 -125 190 -184 343 -159
94 16 177 68 190 119 5 18 3 18 -21 6 -39 -21 -149 -18 -187 5 -65 40 -64 29
-64 650 l0 561 -22 -1 c-13 -1 -52 -7 -88 -15z"/>
<path d="M617 1136 c-58 -16 -94 -41 -125 -86 -25 -38 -23 -47 8 -30 11 6 37
10 57 8 50 -4 72 -37 84 -129 14 -97 6 -581 -10 -631 -6 -20 -27 -60 -46 -87
l-34 -51 226 0 226 0 -20 23 c-23 24 -50 74 -66 121 -6 18 -13 178 -16 381 -6
330 -7 352 -27 390 -42 80 -155 120 -257 91z"/>
<path d="M1160 1141 c-77 -16 -142 -65 -163 -124 -6 -17 -5 -17 15 -2 31 21
94 19 117 -4 35 -35 43 -114 39 -428 -3 -286 -4 -300 -26 -348 -13 -27 -35
-62 -49 -77 l-27 -28 228 0 227 0 -25 33 c-60 78 -60 82 -66 472 -5 348 -6
361 -28 402 -28 53 -75 89 -132 102 -50 12 -60 12 -110 2z"/>
<path d="M2297 1126 c69 -58 72 -156 13 -481 -83 -466 -71 -506 153 -514 l107
-3 -25 53 c-35 77 -33 141 20 439 48 273 53 332 32 383 -40 95 -113 139 -242
145 l-90 5 32 -27z"/>
<path d="M3198 1130 c-36 -19 -73 -60 -97 -108 l-12 -22 43 22 c62 33 183 33
227 0 34 -25 37 -19 21 40 -22 79 -103 109 -182 68z"/>
<path d="M359 1126 c-14 -14 -163 -37 -245 -38 l-92 -1 32 -42 c56 -73 61
-108 61 -435 0 -328 -5 -362 -62 -436 l-33 -44 227 0 226 0 -20 23 c-23 24
-50 74 -66 121 -6 19 -13 196 -16 444 -3 228 -9 411 -12 408z"/>
<path d="M1977 1096 c-71 -26 -107 -76 -107 -150 0 -89 76 -136 164 -102 51
20 79 47 101 100 27 65 3 125 -62 152 -39 17 -48 17 -96 0z"/>
<path d="M2085 675 c-141 -38 -244 -94 -319 -175 -90 -98 -118 -223 -67 -306
70 -116 397 -104 461 15 9 18 8 18 -27 0 -70 -36 -149 -17 -173 41 -17 41 -8
150 19 220 26 68 82 143 139 187 47 36 43 39 -33 18z"/>
</g>
</svg>
